<?xml version="1.0" standalone="no"?>
<!DOCTYPE svg PUBLIC "-//W3C//DTD SVG 20010904//EN"
 "http://www.w3.org/TR/2001/REC-SVG-20010904/DTD/svg10.dtd">
<svg version="1.0" xmlns="http://www.w3.org/2000/svg"
 width="512.000000pt" height="512.000000pt" viewBox="0 0 512.000000 512.000000"
 preserveAspectRatio="xMidYMid meet">

<g transform="translate(0.000000,512.000000) scale(0.100000,-0.100000)"
fill="#d05f5f" stroke="none">
<path d="M1892 4793 c-61 -30 -77 -65 -80 -180 l-4 -103 -390 0 c-431 0 -436
-1 -481 -64 -21 -30 -22 -41 -25 -283 l-3 -253 2106 0 2106 0 -3 253 c-4 373
33 347 -507 347 l-391 0 0 91 c0 146 -43 204 -150 204 -107 0 -150 -58 -150
-204 l0 -91 -380 0 -380 0 0 91 c0 146 -43 204 -150 204 -107 0 -150 -58 -150
-204 l0 -91 -375 0 -375 0 0 93 c0 77 -4 98 -23 131 -39 69 -123 95 -195 59z"/>
<path d="M896 3484 c-39 -744 -346 -1504 -791 -1958 -47 -49 -91 -100 -96
-113 -24 -65 9 -151 71 -184 33 -18 106 -19 2028 -19 1947 0 1994 0 2030 19
20 11 69 52 108 93 276 283 523 705 668 1141 105 314 177 696 193 1015 l6 132
-2105 0 -2105 0 -7 -126z"/>
<path d="M5091 2074 c-136 -332 -392 -722 -632 -963 -109 -108 -158 -145 -237
-175 l-57 -21 -1628 -3 -1627 -2 0 -241 c0 -221 2 -243 20 -279 13 -26 34 -47
60 -60 39 -20 55 -20 2025 -20 1970 0 1986 0 2025 20 26 13 47 34 60 60 20 39
20 54 18 891 l-3 852 -24 -59z"/>
</g>
</svg>
