<svg id="svg" xmlns="http://www.w3.org/2000/svg" xmlns:xlink="http://www.w3.org/1999/xlink" width="400" height="400" viewBox="0, 0, 400,400"><g id="svgg"><path id="path0" d="M160.344 11.430 C 138.615 35.440,146.470 42.866,193.750 43.016 C 231.740 43.136,237.500 41.675,237.500 31.921 C 237.500 2.876,181.536 -11.987,160.344 11.430 M140.625 59.289 C 89.384 83.336,73.739 111.372,68.371 188.771 C 64.468 245.058,62.111 253.965,44.520 278.922 C 24.046 307.969,19.900 329.900,32.500 342.500 C 43.165 353.165,344.335 353.165,355.000 342.500 C 367.318 330.182,363.542 303.150,346.798 283.785 C 332.834 267.635,318.881 233.525,318.785 215.301 C 318.766 211.686,309.119 208.454,297.347 208.121 C 233.563 206.313,196.573 135.495,229.904 79.002 C 240.889 60.385,241.394 56.683,233.370 53.604 C 216.019 46.946,159.551 50.407,140.625 59.289 M246.250 71.250 C 196.910 120.590,230.062 200.000,300.000 200.000 C 347.141 200.000,375.000 172.141,375.000 125.000 C 375.000 55.062,295.590 21.910,246.250 71.250 M306.250 118.239 C 306.250 131.708,307.957 147.176,310.044 152.614 C 312.664 159.441,310.247 162.500,302.231 162.501 C 292.330 162.502,290.625 157.454,290.625 128.145 C 290.625 104.835,293.137 93.781,298.438 93.768 C 303.361 93.757,306.250 102.805,306.250 118.239 M143.673 374.857 C 161.925 408.960,225.575 408.960,243.827 374.857 C 250.188 362.970,248.284 362.500,193.750 362.500 C 139.216 362.500,137.312 362.970,143.673 374.857 " stroke="none" fill="#000000" fill-rule="evenodd"></path></g></svg>