<svg id="svg" xmlns="http://www.w3.org/2000/svg" xmlns:xlink="http://www.w3.org/1999/xlink" width="400" height="400" viewBox="0, 0, 400,400"><g id="svgg"><path id="path0" d="M152.727 70.659 C 151.005 75.147,150.390 113.819,151.360 156.597 L 153.125 234.375 213.683 237.500 C 269.119 240.361,275.755 242.079,292.150 257.813 C 314.452 279.216,317.432 279.222,319.897 257.866 C 321.202 246.565,326.130 239.953,334.375 238.443 C 360.113 233.731,362.500 226.266,362.500 150.485 C 362.500 102.052,359.977 74.977,355.000 70.000 C 343.877 58.877,157.014 59.486,152.727 70.659 M306.250 118.750 C 306.250 122.454,283.333 125.000,250.000 125.000 C 216.667 125.000,193.750 122.454,193.750 118.750 C 193.750 115.046,216.667 112.500,250.000 112.500 C 283.333 112.500,306.250 115.046,306.250 118.750 M45.000 132.500 C 40.023 137.477,37.500 164.552,37.500 212.985 C 37.500 288.764,39.884 296.220,65.625 300.954 C 72.879 302.288,78.963 309.128,80.122 317.251 C 82.688 335.236,88.145 334.897,106.250 315.625 C 119.707 301.300,125.416 300.000,174.839 300.000 C 233.862 300.000,243.750 295.337,243.750 267.500 C 243.750 250.263,243.182 250.000,205.966 250.000 C 150.254 250.000,137.500 235.500,137.500 172.159 L 137.500 125.000 95.000 125.000 C 70.278 125.000,49.363 128.137,45.000 132.500 M306.250 150.000 C 306.250 153.704,283.333 156.250,250.000 156.250 C 216.667 156.250,193.750 153.704,193.750 150.000 C 193.750 146.296,216.667 143.750,250.000 143.750 C 283.333 143.750,306.250 146.296,306.250 150.000 M292.188 179.477 C 282.734 180.909,267.266 180.909,257.813 179.477 C 248.359 178.045,256.094 176.873,275.000 176.873 C 293.906 176.873,301.641 178.045,292.188 179.477 " stroke="none" fill="#000000" fill-rule="evenodd"></path></g></svg>