<svg id="svg" xmlns="http://www.w3.org/2000/svg" xmlns:xlink="http://www.w3.org/1999/xlink" width="400" height="400" viewBox="0, 0, 400,400"><g id="svgg"><path id="path0" d="M62.500 12.720 C 62.500 23.737,60.729 24.492,49.271 18.360 C 30.142 8.122,12.977 24.584,27.567 39.174 C 32.907 44.515,40.461 49.945,44.352 51.242 C 48.967 52.781,46.840 61.126,38.237 75.238 C 17.853 108.676,20.311 129.995,44.831 132.417 C 73.960 135.293,75.495 150.000,46.667 150.000 C 25.736 150.000,23.900 151.334,27.311 164.063 C 29.383 171.797,31.118 181.641,31.165 185.938 C 31.225 191.422,44.056 193.750,74.219 193.750 L 117.188 193.750 121.094 174.219 C 130.260 128.390,127.046 118.750,102.604 118.750 C 74.553 118.750,76.511 104.522,105.184 100.000 L 125.000 96.875 111.786 75.238 C 103.172 61.133,101.036 52.780,105.648 51.242 C 109.539 49.945,117.093 44.515,122.433 39.174 C 137.023 24.584,119.858 8.122,100.729 18.360 C 89.271 24.492,87.500 23.737,87.500 12.720 C 87.500 4.167,83.405 0.000,75.000 0.000 C 66.595 0.000,62.500 4.167,62.500 12.720 M187.500 12.720 C 187.500 23.737,185.729 24.492,174.271 18.360 C 155.142 8.122,137.977 24.584,152.567 39.174 C 157.907 44.515,165.461 49.945,169.352 51.242 C 173.967 52.781,171.840 61.126,163.237 75.238 C 142.853 108.676,145.311 129.995,169.831 132.417 C 198.960 135.293,200.495 150.000,171.667 150.000 C 150.736 150.000,148.900 151.334,152.311 164.063 C 154.383 171.797,156.118 181.641,156.165 185.938 C 156.225 191.422,169.056 193.750,199.219 193.750 L 242.188 193.750 246.094 174.219 C 255.260 128.390,252.046 118.750,227.604 118.750 C 199.553 118.750,201.511 104.522,230.184 100.000 L 250.000 96.875 236.786 75.238 C 228.172 61.133,226.036 52.780,230.648 51.242 C 234.539 49.945,242.093 44.515,247.433 39.174 C 262.023 24.584,244.858 8.122,225.729 18.360 C 214.271 24.492,212.500 23.737,212.500 12.720 C 212.500 4.167,208.405 0.000,200.000 0.000 C 191.595 0.000,187.500 4.167,187.500 12.720 M312.500 12.720 C 312.500 23.737,310.729 24.492,299.271 18.360 C 280.142 8.122,262.977 24.584,277.567 39.174 C 282.907 44.515,290.461 49.945,294.352 51.242 C 298.967 52.781,296.840 61.126,288.237 75.238 C 267.853 108.676,270.311 129.995,294.831 132.417 C 323.960 135.293,325.495 150.000,296.667 150.000 C 275.736 150.000,273.900 151.334,277.311 164.063 C 279.383 171.797,281.118 181.641,281.165 185.938 C 281.225 191.422,294.056 193.750,324.219 193.750 L 367.188 193.750 371.094 174.219 C 380.260 128.390,377.046 118.750,352.604 118.750 C 324.553 118.750,326.511 104.522,355.184 100.000 L 375.000 96.875 361.786 75.238 C 353.172 61.133,351.036 52.780,355.648 51.242 C 359.539 49.945,367.093 44.515,372.433 39.174 C 387.023 24.584,369.858 8.122,350.729 18.360 C 339.271 24.492,337.500 23.737,337.500 12.720 C 337.500 4.167,333.405 0.000,325.000 0.000 C 316.595 0.000,312.500 4.167,312.500 12.720 M0.000 306.250 L 0.000 400.000 25.000 400.000 L 50.000 400.000 50.000 306.250 L 50.000 212.500 25.000 212.500 L 0.000 212.500 0.000 306.250 M68.750 237.500 L 68.750 262.500 200.000 262.500 L 331.250 262.500 331.250 237.500 L 331.250 212.500 200.000 212.500 L 68.750 212.500 68.750 237.500 M350.000 306.250 L 350.000 400.000 375.000 400.000 L 400.000 400.000 400.000 306.250 L 400.000 212.500 375.000 212.500 L 350.000 212.500 350.000 306.250 M68.750 306.250 L 68.750 331.250 200.000 331.250 L 331.250 331.250 331.250 306.250 L 331.250 281.250 200.000 281.250 L 68.750 281.250 68.750 306.250 M68.750 375.000 L 68.750 400.000 200.000 400.000 L 331.250 400.000 331.250 375.000 L 331.250 350.000 200.000 350.000 L 68.750 350.000 68.750 375.000 " stroke="none" fill="#000000" fill-rule="evenodd"></path></g></svg>