<svg id="svg" xmlns="http://www.w3.org/2000/svg" xmlns:xlink="http://www.w3.org/1999/xlink" width="400" height="400" viewBox="0, 0, 400,400"><g id="svgg"><path id="path0" d="M137.019 30.769 C 114.370 53.419,111.502 98.256,130.829 127.573 C 145.593 149.968,224.276 218.750,235.132 218.750 C 245.546 218.750,320.934 154.602,336.218 132.736 C 384.721 63.341,312.515 -25.516,248.524 24.820 C 232.938 37.080,232.807 37.080,221.712 24.820 C 203.601 4.808,159.912 7.877,137.019 30.769 M101.563 231.181 L 81.250 243.566 81.250 305.291 L 81.250 367.016 148.438 377.294 C 271.094 396.057,287.186 392.789,356.088 335.124 C 402.599 296.198,410.829 277.956,384.826 271.430 C 364.456 266.317,345.017 273.158,318.888 294.634 C 298.409 311.467,293.770 312.500,238.680 312.500 C 166.527 312.500,158.139 297.990,228.623 295.104 C 312.907 291.653,309.251 243.750,224.705 243.750 C 192.580 243.750,176.323 240.562,161.089 231.273 C 135.527 215.688,126.995 215.675,101.563 231.181 M2.659 252.085 C 0.900 256.669,0.285 284.091,1.293 313.022 L 3.125 365.625 32.813 367.530 L 62.500 369.435 62.500 306.592 L 62.500 243.750 34.179 243.750 C 16.341 243.750,4.674 246.835,2.659 252.085 " stroke="none" fill="#000000" fill-rule="evenodd"></path></g></svg>