<svg id="svg" xmlns="http://www.w3.org/2000/svg" xmlns:xlink="http://www.w3.org/1999/xlink" width="400" height="400" viewBox="0, 0, 400,400"><g id="svgg"><path id="path0" d="M43.750 25.172 L 43.750 50.343 132.813 48.609 L 221.875 46.875 223.815 23.438 L 225.755 0.000 134.752 0.000 L 43.750 0.000 43.750 25.172 M16.456 93.616 C 7.405 107.292,0.000 119.949,0.000 121.741 C 0.000 123.533,40.724 125.000,90.498 125.000 L 180.996 125.000 193.623 100.249 C 200.568 86.636,206.250 73.980,206.250 72.124 C 206.250 70.268,167.249 68.750,119.581 68.750 L 32.911 68.750 16.456 93.616 M212.500 100.000 L 199.746 125.000 227.998 125.000 C 260.356 125.000,259.598 126.195,245.717 97.087 C 232.318 68.988,228.134 69.355,212.500 100.000 M0.000 237.500 L 0.000 331.250 76.891 331.250 L 153.781 331.250 162.030 298.438 C 166.567 280.391,171.528 238.203,173.054 204.688 L 175.830 143.750 87.915 143.750 L 0.000 143.750 0.000 237.500 M193.750 178.125 C 193.750 214.688,196.109 217.409,215.257 202.926 C 221.930 197.879,235.289 193.750,244.945 193.750 C 261.259 193.750,262.500 191.983,262.500 168.750 L 262.500 143.750 228.125 143.750 L 193.750 143.750 193.750 178.125 M224.055 215.805 C 190.372 233.993,164.287 321.547,180.727 361.237 C 195.999 398.107,257.028 412.810,289.330 387.402 C 350.729 339.106,290.233 180.071,224.055 215.805 M323.438 235.558 C 310.087 239.047,309.951 242.374,321.989 271.184 C 336.287 305.404,335.329 351.429,319.770 377.800 L 306.672 400.000 321.243 400.000 C 372.433 400.000,425.540 275.051,388.570 241.594 C 377.773 231.823,348.214 229.083,323.438 235.558 M0.000 375.000 L 0.000 400.000 93.383 400.000 L 186.766 400.000 170.398 375.000 L 154.030 350.000 77.015 350.000 L 0.000 350.000 0.000 375.000 " stroke="none" fill="#000000" fill-rule="evenodd"></path></g></svg>