<svg id="svg" xmlns="http://www.w3.org/2000/svg" xmlns:xlink="http://www.w3.org/1999/xlink" width="400" height="400" viewBox="0, 0, 400,400"><g id="svgg"><path id="path0" d="M64.271 26.965 C -2.080 38.671,-23.419 124.370,29.818 165.335 C 69.725 196.043,130.199 180.199,148.855 134.147 C 151.135 128.519,152.130 125.142,154.426 115.234 C 154.950 112.976,154.979 112.962,155.242 114.844 C 165.798 190.441,270.743 205.731,302.803 136.341 C 333.600 69.685,262.725 1.476,196.875 34.400 C 175.437 45.118,155.836 72.203,155.416 91.689 C 155.345 94.997,154.628 93.124,152.467 83.984 C 143.450 45.848,103.528 20.038,64.271 26.965 M90.625 75.496 C 110.097 84.887,114.613 110.022,99.562 125.243 C 81.375 143.635,50.631 133.448,46.647 107.710 C 42.915 83.599,68.526 64.839,90.625 75.496 M245.313 75.484 C 272.844 88.697,267.002 129.575,236.906 134.304 C 212.448 138.146,193.205 111.732,204.387 89.665 C 211.979 74.684,230.368 68.312,245.313 75.484 M122.000 183.183 C 99.979 196.852,67.256 198.562,41.675 187.382 L 36.084 184.938 33.389 186.604 C 28.805 189.437,23.477 195.850,20.462 202.164 L 17.578 208.203 17.361 274.531 C 17.168 333.703,17.281 341.328,18.407 345.201 C 22.391 358.907,33.229 369.361,47.234 373.007 C 54.286 374.842,255.870 374.842,262.922 373.007 C 276.839 369.384,287.834 358.787,291.539 345.425 C 293.591 338.025,293.755 215.461,291.722 208.540 C 289.812 202.037,286.084 195.629,281.606 191.151 C 274.980 184.525,274.744 184.473,266.485 187.816 C 240.264 198.433,214.050 197.115,189.170 183.931 L 182.636 180.469 154.404 180.531 L 126.172 180.593 122.000 183.183 M378.516 197.725 C 377.227 198.115,360.527 207.518,341.406 218.621 L 306.641 238.808 306.641 277.658 L 306.641 316.508 342.388 337.242 C 378.026 357.913,378.150 357.976,382.779 358.020 C 389.213 358.081,394.106 355.509,397.259 350.410 L 399.609 346.608 399.838 278.968 C 399.964 241.766,399.852 210.145,399.591 208.700 C 398.227 201.174,386.795 195.221,378.516 197.725 " stroke="none" fill="#000000" fill-rule="evenodd"></path></g></svg>