<svg viewBox="0 0 200 200" xmlns="http://www.w3.org/2000/svg">
  <path fill="#19420A" d="M23,-44.5C32.8,-34.1,45.8,-34,53,-28.3C60.2,-22.6,61.6,-11.3,60.8,-0.5C59.9,10.3,56.6,20.6,51.9,30.7C47.3,40.7,41.1,50.7,32.2,50.3C23.3,50,11.7,39.4,1.1,37.5C-9.5,35.6,-18.9,42.4,-27.3,42.4C-35.6,42.4,-42.8,35.7,-42.5,27.5C-42.1,19.2,-34.2,9.6,-36.6,-1.4C-39.1,-12.4,-51.9,-24.9,-51.5,-31.9C-51.2,-38.9,-37.7,-40.4,-26.9,-50.3C-16.2,-60.1,-8.1,-78.2,-0.7,-76.9C6.6,-75.6,13.2,-54.9,23,-44.5Z" transform="translate(100 100)" />
</svg>
