<?xml version="1.0" encoding="iso-8859-1"?>
<!-- Generator: Adobe Illustrator 16.0.0, SVG Export Plug-In . SVG Version: 6.00 Build 0)  -->
<!DOCTYPE svg PUBLIC "-//W3C//DTD SVG 1.1//EN" "http://www.w3.org/Graphics/SVG/1.1/DTD/svg11.dtd">
<svg version="1.1" id="Capa_1" xmlns="http://www.w3.org/2000/svg" xmlns:xlink="http://www.w3.org/1999/xlink" x="0px" y="0px"
	 width="315.327px" height="315.327px" viewBox="0 0 315.327 315.327" style="enable-background:new 0 0 315.327 315.327;"
	 xml:space="preserve">
<g>
	<path d="M269.844,308.128l-83.978-84.014c-7.199-7.205-20.193-8.82-29.744-5.271c-41.307,15.342-92.768,8.196-122.417-24.428
		c-44.468-44.475-44.468-116.583,0-161.063c44.48-44.469,116.613-44.469,161.097,0c33.393,33.401,41.638,82.371,24.836,123.536
		c-3.849,9.431-2.486,22.275,4.714,29.486l83.61,83.635c14.01,14.004,4.144,25.365-4.653,34.126
		C294.554,312.901,283.889,322.125,269.844,308.128z M166.682,60.247c-29.16-29.166-76.474-29.166-105.627,0
		c-29.168,29.189-29.168,76.468,0,105.651c29.153,29.159,76.468,29.159,105.627,0C195.864,136.715,195.864,89.437,166.682,60.247z"
		/>
</g>
<g>
</g>
<g>
</g>
<g>
</g>
<g>
</g>
<g>
</g>
<g>
</g>
<g>
</g>
<g>
</g>
<g>
</g>
<g>
</g>
<g>
</g>
<g>
</g>
<g>
</g>
<g>
</g>
<g>
</g>
</svg>
